<?xml version="1.0" encoding="UTF-8" standalone="no"?>
<!-- Created with Inkscape (http://www.inkscape.org/) -->

<svg
   xmlns:dc="http://purl.org/dc/elements/1.1/"
   xmlns:cc="http://creativecommons.org/ns#"
   xmlns:rdf="http://www.w3.org/1999/02/22-rdf-syntax-ns#"
   xmlns:svg="http://www.w3.org/2000/svg"
   xmlns="http://www.w3.org/2000/svg"
   xmlns:sodipodi="http://sodipodi.sourceforge.net/DTD/sodipodi-0.dtd"
   xmlns:inkscape="http://www.inkscape.org/namespaces/inkscape"
   version="1.1"
   id="svg3732"
   xml:space="preserve"
   width="253.33333"
   height="128"
   viewBox="0 0 253.33333 128"
   sodipodi:docname="benzoCompounds.svg"
   inkscape:version="0.92.4 (5da689c313, 2019-01-14)"><metadata
     id="metadata3738"><rdf:RDF><cc:Work
         rdf:about=""><dc:format>image/svg+xml</dc:format><dc:type
           rdf:resource="http://purl.org/dc/dcmitype/StillImage" /><dc:title></dc:title></cc:Work></rdf:RDF></metadata><defs
     id="defs3736" /><sodipodi:namedview
     pagecolor="#ffffff"
     bordercolor="#666666"
     borderopacity="1"
     objecttolerance="10"
     gridtolerance="10"
     guidetolerance="10"
     inkscape:pageopacity="0"
     inkscape:pageshadow="2"
     inkscape:window-width="1681"
     inkscape:window-height="905"
     id="namedview3734"
     showgrid="false"
     inkscape:zoom="4.7368422"
     inkscape:cx="126.66666"
     inkscape:cy="64"
     inkscape:window-x="85"
     inkscape:window-y="71"
     inkscape:window-maximized="0"
     inkscape:current-layer="g3740" /><g
     id="g3740"
     inkscape:groupmode="layer"
     inkscape:label="benzoCompounds"
     transform="matrix(1.3333333,0,0,-1.3333333,0,128)"><g
       id="g3742"
       transform="scale(0.1)"><path
         d="M 264,16 256,8 8,152 16,160 264,16"
         style="fill:#000000;fill-opacity:1;fill-rule:nonzero;stroke:none"
         id="path3744"
         inkscape:connector-curvature="0" /><path
         d="M 272,72 264,64 48,192 56,200 272,72"
         style="fill:#000000;fill-opacity:1;fill-rule:nonzero;stroke:none"
         id="path3746"
         inkscape:connector-curvature="0" /><path
         d="m 504,160 8,-8 -248,-144 -8,8 248,144"
         style="fill:#000000;fill-opacity:1;fill-rule:nonzero;stroke:none"
         id="path3748"
         inkscape:connector-curvature="0" /><path
         d="M 8,160 H 24 V 448 H 8 Z"
         style="fill:#000000;fill-opacity:1;fill-rule:nonzero;stroke:none"
         id="path3750"
         inkscape:connector-curvature="0" /><path
         d="m 504,160 h 16 v 288 h -16 z"
         style="fill:#000000;fill-opacity:1;fill-rule:nonzero;stroke:none"
         id="path3752"
         inkscape:connector-curvature="0" /><path
         d="m 448,184 h 16 v 240 h -16 z"
         style="fill:#000000;fill-opacity:1;fill-rule:nonzero;stroke:none"
         id="path3754"
         inkscape:connector-curvature="0" /><path
         d="m 512,160 -8,-8 248,-144 8,8 -248,144"
         style="fill:#000000;fill-opacity:1;fill-rule:nonzero;stroke:none"
         id="path3756"
         inkscape:connector-curvature="0" /><path
         d="m 8,448 8,-8 248,144 -8,8 L 8,448"
         style="fill:#000000;fill-opacity:1;fill-rule:nonzero;stroke:none"
         id="path3758"
         inkscape:connector-curvature="0" /><path
         d="m 48,400 8,-8 216,128 -8,8 L 48,400"
         style="fill:#000000;fill-opacity:1;fill-rule:nonzero;stroke:none"
         id="path3760"
         inkscape:connector-curvature="0" /><path
         d="m 264,592 -8,-8 248,-144 8,8 -248,144"
         style="fill:#000000;fill-opacity:1;fill-rule:nonzero;stroke:none"
         id="path3762"
         inkscape:connector-curvature="0" /><path
         d="m 256,592 h 16 v 288 h -16 z"
         style="fill:#000000;fill-opacity:1;fill-rule:nonzero;stroke:none"
         id="path3764"
         inkscape:connector-curvature="0" /><path
         d="m 1400,24 -8,-8 -248,144 8,8 248,-144"
         style="fill:#000000;fill-opacity:1;fill-rule:nonzero;stroke:none"
         id="path3766"
         inkscape:connector-curvature="0" /><path
         d="m 1640,168 8,-8 -248,-144 -8,8 248,144"
         style="fill:#000000;fill-opacity:1;fill-rule:nonzero;stroke:none"
         id="path3768"
         inkscape:connector-curvature="0" /><path
         d="m 1592,208 8,-8 -216,-128 -8,8 216,128"
         style="fill:#000000;fill-opacity:1;fill-rule:nonzero;stroke:none"
         id="path3770"
         inkscape:connector-curvature="0" /><path
         d="m 1144,168 h 16 v 288 h -16 z"
         style="fill:#000000;fill-opacity:1;fill-rule:nonzero;stroke:none"
         id="path3772"
         inkscape:connector-curvature="0" /><path
         d="m 1200,192 h 16 v 240 h -16 z"
         style="fill:#000000;fill-opacity:1;fill-rule:nonzero;stroke:none"
         id="path3774"
         inkscape:connector-curvature="0" /><path
         d="m 1640,168 h 16 v 288 h -16 z"
         style="fill:#000000;fill-opacity:1;fill-rule:nonzero;stroke:none"
         id="path3776"
         inkscape:connector-curvature="0" /><path
         d="m 1648,168 -8,-8 248,-144 8,8 -248,144"
         style="fill:#000000;fill-opacity:1;fill-rule:nonzero;stroke:none"
         id="path3778"
         inkscape:connector-curvature="0" /><path
         d="m 1144,456 8,-8 248,144 -8,8 -248,-144"
         style="fill:#000000;fill-opacity:1;fill-rule:nonzero;stroke:none"
         id="path3780"
         inkscape:connector-curvature="0" /><path
         d="m 1400,600 -8,-8 248,-144 8,8 -248,144"
         style="fill:#000000;fill-opacity:1;fill-rule:nonzero;stroke:none"
         id="path3782"
         inkscape:connector-curvature="0" /><path
         d="m 1384,536 -8,-8 216,-128 8,8 -216,128"
         style="fill:#000000;fill-opacity:1;fill-rule:nonzero;stroke:none"
         id="path3784"
         inkscape:connector-curvature="0" /><path
         d="m 1392,600 h 16 v 288 h -16 z"
         style="fill:#000000;fill-opacity:1;fill-rule:nonzero;stroke:none"
         id="path3786"
         inkscape:connector-curvature="0" /><path
         d="M 216,816 H 320 V 944 H 216 Z"
         style="fill:#ffffff;fill-opacity:1;fill-rule:nonzero;stroke:none"
         id="path3788"
         inkscape:connector-curvature="0" /><path
         d="M 288,816 H 392 V 944 H 288 Z"
         style="fill:#ffffff;fill-opacity:1;fill-rule:nonzero;stroke:none"
         id="path3790"
         inkscape:connector-curvature="0" /><path
         d="m 269.828,895.562 c -6.875,0 -12.344,-2.562 -16.406,-7.687 -4.031,-5.125 -6.047,-12.109 -6.047,-20.953 0,-8.813 2.016,-15.781 6.047,-20.906 4.062,-5.125 9.531,-7.688 16.406,-7.688 6.875,0 12.309,2.563 16.313,7.688 4.031,5.125 6.047,12.093 6.047,20.906 0,8.844 -2.016,15.828 -6.047,20.953 -4.004,5.125 -9.438,7.687 -16.313,7.687 m 0,7.688 c 9.809,0 17.656,-3.297 23.531,-9.891 5.875,-6.562 8.813,-15.375 8.813,-26.437 0,-11.031 -2.938,-19.844 -8.813,-26.438 -5.875,-6.562 -13.722,-9.843 -23.531,-9.843 -9.844,0 -17.719,3.281 -23.625,9.843 -5.875,6.563 -8.812,15.375 -8.812,26.438 0,11.062 2.937,19.875 8.812,26.437 5.906,6.594 13.781,9.891 23.625,9.891"
         style="fill:#ff0000;fill-opacity:1;fill-rule:nonzero;stroke:none"
         id="path3792"
         inkscape:connector-curvature="0" /><path
         d="m 313.422,901.984 h 9.469 v -28.687 h 34.406 v 28.687 h 9.469 V 832 h -9.469 v 33.328 H 322.891 V 832 h -9.469 v 69.984"
         style="fill:#ff0000;fill-opacity:1;fill-rule:nonzero;stroke:none"
         id="path3794"
         inkscape:connector-curvature="0" /><path
         d="m 1352,824 h 104 v 128 h -104 z"
         style="fill:#ffffff;fill-opacity:1;fill-rule:nonzero;stroke:none"
         id="path3796"
         inkscape:connector-curvature="0" /><path
         d="m 1424,824 h 104 v 128 h -104 z"
         style="fill:#ffffff;fill-opacity:1;fill-rule:nonzero;stroke:none"
         id="path3798"
         inkscape:connector-curvature="0" /><path
         d="m 1405.83,903.562 c -6.88,0 -12.35,-2.562 -16.41,-7.687 -4.03,-5.125 -6.04,-12.109 -6.04,-20.953 0,-8.813 2.01,-15.781 6.04,-20.906 4.06,-5.125 9.53,-7.688 16.41,-7.688 6.87,0 12.31,2.563 16.31,7.688 4.03,5.125 6.05,12.093 6.05,20.906 0,8.844 -2.02,15.828 -6.05,20.953 -4,5.125 -9.44,7.687 -16.31,7.687 m 0,7.688 c 9.81,0 17.65,-3.297 23.53,-9.891 5.87,-6.562 8.81,-15.375 8.81,-26.437 0,-11.031 -2.94,-19.844 -8.81,-26.438 -5.88,-6.562 -13.72,-9.843 -23.53,-9.843 -9.85,0 -17.72,3.281 -23.63,9.843 -5.87,6.563 -8.81,15.375 -8.81,26.438 0,11.062 2.94,19.875 8.81,26.437 5.91,6.594 13.78,9.891 23.63,9.891"
         style="fill:#ff0000;fill-opacity:1;fill-rule:nonzero;stroke:none"
         id="path3800"
         inkscape:connector-curvature="0" /><path
         d="m 1449.42,909.984 h 9.47 v -28.687 h 34.41 v 28.687 h 9.47 V 840 h -9.47 v 33.328 h -34.41 V 840 h -9.47 v 69.984"
         style="fill:#ff0000;fill-opacity:1;fill-rule:nonzero;stroke:none"
         id="path3802"
         inkscape:connector-curvature="0" /></g></g></svg>